<mxfile host="Electron" modified="2023-06-27T13:58:24.873Z" agent="Mozilla/5.0 (Windows NT 10.0; Win64; x64) AppleWebKit/537.36 (KHTML, like Gecko) draw.io/21.2.8 Chrome/112.0.5615.165 Electron/24.2.0 Safari/537.36" etag="AE1CMbg6F9sPW6viOgv7" version="21.2.8" type="device">
  <diagram name="第 1 页" id="b5Iehplv2e24rphCvbw2">
    <mxGraphModel dx="1036" dy="654" grid="1" gridSize="10" guides="1" tooltips="1" connect="1" arrows="1" fold="1" page="1" pageScale="1" pageWidth="827" pageHeight="1169" math="0" shadow="0">
      <root>
        <mxCell id="0" />
        <mxCell id="1" parent="0" />
        <mxCell id="tUbC4f4G_pyZW4TmPFEx-2" value="属性表" style="rounded=1;whiteSpace=wrap;html=1;" parent="1" vertex="1">
          <mxGeometry x="40" y="390" width="120" height="60" as="geometry" />
        </mxCell>
        <mxCell id="tUbC4f4G_pyZW4TmPFEx-4" value="产品" style="rounded=1;whiteSpace=wrap;html=1;" parent="1" vertex="1">
          <mxGeometry x="410" y="270" width="120" height="60" as="geometry" />
        </mxCell>
        <mxCell id="tUbC4f4G_pyZW4TmPFEx-5" value="商品" style="rounded=1;whiteSpace=wrap;html=1;" parent="1" vertex="1">
          <mxGeometry x="610" y="270" width="120" height="60" as="geometry" />
        </mxCell>
        <mxCell id="tUbC4f4G_pyZW4TmPFEx-7" value="" style="endArrow=none;html=1;rounded=0;entryX=1;entryY=0.5;entryDx=0;entryDy=0;exitX=0;exitY=0.5;exitDx=0;exitDy=0;strokeWidth=1;fontSize=11;align=center;fontStyle=0" parent="1" source="zX3FysZTjf-tK_-y_odJ-2" target="tUbC4f4G_pyZW4TmPFEx-2" edge="1">
          <mxGeometry width="50" height="50" relative="1" as="geometry">
            <mxPoint x="450" y="230" as="sourcePoint" />
            <mxPoint x="500" y="180" as="targetPoint" />
          </mxGeometry>
        </mxCell>
        <mxCell id="tUbC4f4G_pyZW4TmPFEx-8" value="1" style="edgeLabel;html=1;align=center;verticalAlign=middle;resizable=0;points=[];fontSize=11;" parent="tUbC4f4G_pyZW4TmPFEx-7" vertex="1" connectable="0">
          <mxGeometry x="-0.7586" y="-1" relative="1" as="geometry">
            <mxPoint as="offset" />
          </mxGeometry>
        </mxCell>
        <mxCell id="tUbC4f4G_pyZW4TmPFEx-9" value="n" style="edgeLabel;html=1;align=center;verticalAlign=middle;resizable=0;points=[];" parent="tUbC4f4G_pyZW4TmPFEx-7" vertex="1" connectable="0">
          <mxGeometry x="0.5862" y="1" relative="1" as="geometry">
            <mxPoint as="offset" />
          </mxGeometry>
        </mxCell>
        <mxCell id="tUbC4f4G_pyZW4TmPFEx-13" value="" style="endArrow=none;html=1;rounded=0;entryX=1;entryY=0.5;entryDx=0;entryDy=0;strokeWidth=1;fontSize=11;align=center;fontStyle=0;exitX=0;exitY=0.5;exitDx=0;exitDy=0;" parent="1" source="tUbC4f4G_pyZW4TmPFEx-5" target="tUbC4f4G_pyZW4TmPFEx-4" edge="1">
          <mxGeometry width="50" height="50" relative="1" as="geometry">
            <mxPoint x="560" y="350" as="sourcePoint" />
            <mxPoint x="560" y="290" as="targetPoint" />
          </mxGeometry>
        </mxCell>
        <mxCell id="tUbC4f4G_pyZW4TmPFEx-14" value="n" style="edgeLabel;html=1;align=center;verticalAlign=middle;resizable=0;points=[];fontSize=11;" parent="tUbC4f4G_pyZW4TmPFEx-13" vertex="1" connectable="0">
          <mxGeometry x="-0.7586" y="-1" relative="1" as="geometry">
            <mxPoint as="offset" />
          </mxGeometry>
        </mxCell>
        <mxCell id="tUbC4f4G_pyZW4TmPFEx-15" value="1" style="edgeLabel;html=1;align=center;verticalAlign=middle;resizable=0;points=[];" parent="tUbC4f4G_pyZW4TmPFEx-13" vertex="1" connectable="0">
          <mxGeometry x="0.5862" y="1" relative="1" as="geometry">
            <mxPoint as="offset" />
          </mxGeometry>
        </mxCell>
        <mxCell id="zX3FysZTjf-tK_-y_odJ-1" value="品牌" style="rounded=1;whiteSpace=wrap;html=1;" parent="1" vertex="1">
          <mxGeometry x="220" y="270" width="120" height="60" as="geometry" />
        </mxCell>
        <mxCell id="zX3FysZTjf-tK_-y_odJ-2" value="分类" style="rounded=1;whiteSpace=wrap;html=1;" parent="1" vertex="1">
          <mxGeometry x="220" y="390" width="120" height="60" as="geometry" />
        </mxCell>
        <mxCell id="zX3FysZTjf-tK_-y_odJ-6" value="" style="endArrow=none;html=1;rounded=0;entryX=1;entryY=0.5;entryDx=0;entryDy=0;exitX=0;exitY=0.5;exitDx=0;exitDy=0;" parent="1" source="tUbC4f4G_pyZW4TmPFEx-4" target="zX3FysZTjf-tK_-y_odJ-1" edge="1">
          <mxGeometry width="50" height="50" relative="1" as="geometry">
            <mxPoint x="400" y="420" as="sourcePoint" />
            <mxPoint x="450" y="370" as="targetPoint" />
          </mxGeometry>
        </mxCell>
        <mxCell id="zX3FysZTjf-tK_-y_odJ-13" value="1" style="edgeLabel;html=1;align=center;verticalAlign=middle;resizable=0;points=[];" parent="zX3FysZTjf-tK_-y_odJ-6" vertex="1" connectable="0">
          <mxGeometry x="-0.5905" relative="1" as="geometry">
            <mxPoint as="offset" />
          </mxGeometry>
        </mxCell>
        <mxCell id="zX3FysZTjf-tK_-y_odJ-14" value="1" style="edgeLabel;html=1;align=center;verticalAlign=middle;resizable=0;points=[];" parent="zX3FysZTjf-tK_-y_odJ-6" vertex="1" connectable="0">
          <mxGeometry x="0.5048" y="2" relative="1" as="geometry">
            <mxPoint as="offset" />
          </mxGeometry>
        </mxCell>
        <mxCell id="zX3FysZTjf-tK_-y_odJ-7" value="" style="endArrow=none;html=1;rounded=0;entryX=0.5;entryY=1;entryDx=0;entryDy=0;exitX=0.5;exitY=0;exitDx=0;exitDy=0;" parent="1" source="zX3FysZTjf-tK_-y_odJ-2" target="zX3FysZTjf-tK_-y_odJ-1" edge="1">
          <mxGeometry width="50" height="50" relative="1" as="geometry">
            <mxPoint x="430" y="450" as="sourcePoint" />
            <mxPoint x="480" y="400" as="targetPoint" />
          </mxGeometry>
        </mxCell>
        <mxCell id="zX3FysZTjf-tK_-y_odJ-9" value="n" style="edgeLabel;html=1;align=right;verticalAlign=middle;resizable=0;points=[];" parent="zX3FysZTjf-tK_-y_odJ-7" vertex="1" connectable="0">
          <mxGeometry x="0.5733" relative="1" as="geometry">
            <mxPoint as="offset" />
          </mxGeometry>
        </mxCell>
        <mxCell id="zX3FysZTjf-tK_-y_odJ-10" value="n" style="edgeLabel;html=1;align=right;verticalAlign=middle;resizable=0;points=[];" parent="zX3FysZTjf-tK_-y_odJ-7" vertex="1" connectable="0">
          <mxGeometry x="-0.56" y="1" relative="1" as="geometry">
            <mxPoint as="offset" />
          </mxGeometry>
        </mxCell>
        <mxCell id="zX3FysZTjf-tK_-y_odJ-8" value="" style="endArrow=none;html=1;rounded=0;entryX=0.5;entryY=1;entryDx=0;entryDy=0;exitX=1;exitY=0.5;exitDx=0;exitDy=0;" parent="1" source="zX3FysZTjf-tK_-y_odJ-2" target="tUbC4f4G_pyZW4TmPFEx-4" edge="1">
          <mxGeometry width="50" height="50" relative="1" as="geometry">
            <mxPoint x="310" y="380" as="sourcePoint" />
            <mxPoint x="310" y="340" as="targetPoint" />
          </mxGeometry>
        </mxCell>
        <mxCell id="zX3FysZTjf-tK_-y_odJ-11" value="1" style="edgeLabel;html=1;align=center;verticalAlign=middle;resizable=0;points=[];" parent="zX3FysZTjf-tK_-y_odJ-8" vertex="1" connectable="0">
          <mxGeometry x="0.7155" y="-1" relative="1" as="geometry">
            <mxPoint as="offset" />
          </mxGeometry>
        </mxCell>
        <mxCell id="zX3FysZTjf-tK_-y_odJ-12" value="1" style="edgeLabel;html=1;align=center;verticalAlign=middle;resizable=0;points=[];" parent="zX3FysZTjf-tK_-y_odJ-8" vertex="1" connectable="0">
          <mxGeometry x="-0.6885" y="-4" relative="1" as="geometry">
            <mxPoint as="offset" />
          </mxGeometry>
        </mxCell>
        <mxCell id="zX3FysZTjf-tK_-y_odJ-15" value="关联表" style="text;html=1;strokeColor=none;fillColor=none;align=center;verticalAlign=middle;whiteSpace=wrap;rounded=0;" parent="1" vertex="1">
          <mxGeometry x="220" y="340" width="60" height="30" as="geometry" />
        </mxCell>
      </root>
    </mxGraphModel>
  </diagram>
</mxfile>
